<svg width="1920" height="236" viewBox="0 0 1920 236" fill="none" xmlns="http://www.w3.org/2000/svg">
<g opacity="0.1">
<path d="M1852 232.879V208.545H1869.42C1880.87 208.545 1888.02 205.921 1893.03 192.084L1896.37 183.257L1848.9 60.3948H1879.67L1909.97 146.279L1941.94 60.3948H1972L1914.27 204.489C1905.44 226.438 1893.03 235.503 1873.71 235.503C1865.6 235.503 1858.44 234.549 1852 232.879Z" fill="white"/>
<path d="M1821.26 178.247H1792.16V84.7289H1769.49V60.3951H1792.16V23.6558H1821.26V60.3951H1844.17V84.7289H1821.26V178.247Z" fill="white"/>
<path d="M1736.56 36.7759C1726.54 36.7759 1718.67 28.9032 1718.67 19.1219C1718.67 9.34069 1726.54 1.70654 1736.56 1.70654C1746.1 1.70654 1753.98 9.34069 1753.98 19.1219C1753.98 28.9032 1746.1 36.7759 1736.56 36.7759ZM1722.01 178.246V60.3941H1751.11V178.246H1722.01Z" fill="white"/>
<path d="M1610.63 178.247H1581.52V60.3949H1608.48L1610.87 75.6632C1618.26 63.7349 1632.58 56.8164 1648.56 56.8164C1678.14 56.8164 1693.41 75.1861 1693.41 105.723V178.247H1664.31V112.641C1664.31 92.8401 1654.52 83.2974 1639.5 83.2974C1621.6 83.2974 1610.63 95.7028 1610.63 114.788V178.247Z" fill="white"/>
<path d="M1522.36 60.3948H1551.46V178.247H1524.5L1522.36 162.502C1515.2 173.714 1499.93 181.348 1484.19 181.348C1456.99 181.348 1441.01 162.979 1441.01 134.112V60.3948H1470.11V123.854C1470.11 146.279 1478.94 155.345 1495.16 155.345C1513.53 155.345 1522.36 144.609 1522.36 122.184V60.3948Z" fill="white"/>
<path d="M1260.47 178.247H1231.36V60.3949H1258.08L1260.47 74.2318C1266.43 64.4506 1278.36 56.8164 1295.3 56.8164C1313.19 56.8164 1325.59 65.6434 1331.8 79.2417C1337.76 65.6434 1351.6 56.8164 1369.49 56.8164C1398.12 56.8164 1413.86 73.9932 1413.86 101.19V178.247H1385V108.824C1385 91.8858 1375.93 83.0588 1362.1 83.0588C1348.02 83.0588 1337.28 92.1243 1337.28 111.448V178.247H1308.18V108.585C1308.18 92.1243 1299.35 83.2974 1285.52 83.2974C1271.68 83.2974 1260.47 92.3629 1260.47 111.448V178.247Z" fill="white"/>
<path d="M1049.39 178.247H1020.28V60.3949H1047L1049.39 74.2318C1055.35 64.4506 1067.28 56.8164 1084.22 56.8164C1102.11 56.8164 1114.52 65.6434 1120.72 79.2417C1126.69 65.6434 1140.52 56.8164 1158.42 56.8164C1187.04 56.8164 1202.79 73.9932 1202.79 101.19V178.247H1173.92V108.824C1173.92 91.8858 1164.86 83.0588 1151.02 83.0588C1136.94 83.0588 1126.21 92.1243 1126.21 111.448V178.247H1097.1V108.585C1097.1 92.1243 1088.28 83.2974 1074.44 83.2974C1060.6 83.2974 1049.39 92.3629 1049.39 111.448V178.247Z" fill="white"/>
<path d="M871.251 119.082C871.251 82.3431 897.732 57.0549 934.233 57.0549C970.734 57.0549 997.215 82.3431 997.215 119.082C997.215 155.822 970.734 181.11 934.233 181.11C897.732 181.11 871.251 155.822 871.251 119.082ZM900.357 119.082C900.357 140.553 914.193 155.106 934.233 155.106C954.273 155.106 968.11 140.553 968.11 119.082C968.11 97.6113 954.273 83.0587 934.233 83.0587C914.193 83.0587 900.357 97.6113 900.357 119.082Z" fill="white"/>
<path d="M775.159 181.11C724.344 181.11 691.422 145.802 691.422 91.1698C691.422 37.0151 725.537 0.991455 776.59 0.991455C817.862 0.991455 848.637 25.0867 854.602 62.5418H822.395C816.431 42.2636 799.016 30.3352 775.875 30.3352C743.668 30.3352 723.39 53.7148 723.39 90.9313C723.39 127.909 743.907 151.766 775.875 151.766C799.493 151.766 817.624 139.36 823.349 120.036H855.079C848.399 156.776 816.431 181.11 775.159 181.11Z" fill="white"/>
<path d="M513.35 142.462H541.024C541.262 152.72 548.897 159.162 562.256 159.162C575.855 159.162 583.25 153.675 583.25 145.086C583.25 139.122 580.149 134.828 569.652 132.442L548.419 127.432C527.187 122.661 516.929 112.641 516.929 93.7943C516.929 70.6533 536.491 56.8164 563.688 56.8164C590.169 56.8164 608.061 72.0847 608.3 94.9872H580.626C580.387 84.9673 573.708 78.526 562.495 78.526C551.044 78.526 544.364 83.7745 544.364 92.6015C544.364 99.2814 549.612 103.576 559.632 105.961L580.865 110.971C600.666 115.504 610.685 124.569 610.685 142.701C610.685 166.557 590.407 181.348 561.302 181.348C531.958 181.348 513.35 165.603 513.35 142.462Z" fill="white"/>
<path d="M497.936 21.5082L490.779 73.0387H475.272L468.115 21.5082C465.968 8.14842 475.034 2.66138 483.622 2.66138C490.779 2.66138 499.845 8.14842 497.936 21.5082Z" fill="white"/>
<path d="M438.3 178.247H409.434V0.75293H438.3V178.247Z" fill="white"/>
<path d="M328.884 181.348C293.814 181.348 269.242 155.822 269.242 119.321C269.242 82.3431 293.337 56.8164 327.929 56.8164C363.237 56.8164 385.663 80.4345 385.663 117.174V126.001L296.916 126.239C299.063 146.995 310.037 157.492 329.361 157.492C345.345 157.492 355.842 151.289 359.182 140.076H386.14C381.13 165.842 359.659 181.348 328.884 181.348ZM328.168 80.6731C310.991 80.6731 300.494 89.9772 297.631 107.631H356.796C356.796 91.4086 345.583 80.6731 328.168 80.6731Z" fill="white"/>
<path d="M164.781 178.247H135.676V0.75293H165.02V75.663C172.415 64.2118 186.252 56.8162 203.19 56.8162C232.296 56.8162 247.564 75.1859 247.564 105.722V178.247H218.459V112.641C218.459 92.8399 208.677 83.2972 193.886 83.2972C175.517 83.2972 164.781 96.1798 164.781 113.834V178.247Z" fill="white"/>
<path d="M33.83 181.11C-16.9848 181.11 -49.907 145.802 -49.907 91.1698C-49.907 37.0151 -15.7919 0.991455 35.2614 0.991455C76.5336 0.991455 107.309 25.0867 113.273 62.5418H81.0663C75.1022 42.2636 57.6868 30.3352 34.5457 30.3352C2.33917 30.3352 -17.939 53.7148 -17.939 90.9313C-17.939 127.909 2.57773 151.766 34.5457 151.766C58.1639 151.766 76.295 139.36 82.0206 120.036H113.75C107.07 156.776 75.1022 181.11 33.83 181.11Z" fill="white"/>
</g>
</svg>
