<svg width="25" height="25" viewBox="0 0 25 25" fill="none" xmlns="http://www.w3.org/2000/svg">
<path d="M18.2327 0H6.76728C3.03574 0 0 3.03574 0 6.76728V18.2329C0 21.9643 3.03574 25 6.76728 25H18.2329C21.9643 25 25 21.9643 25 18.2329V6.76728C25 3.03574 21.9643 0 18.2327 0ZM23.5344 18.2329C23.5344 21.1561 21.1561 23.5344 18.2327 23.5344H6.76728C3.8439 23.5344 1.46563 21.1561 1.46563 18.2329V6.76728C1.46563 3.8439 3.8439 1.46563 6.76728 1.46563H18.2329C21.1561 1.46563 23.5344 3.8439 23.5344 6.76728V18.2329Z" fill="white"/>
<path d="M12.5001 5.66451C8.73077 5.66451 5.66431 8.73092 5.66431 12.5003C5.66431 16.2696 8.73072 19.336 12.5001 19.336C16.2694 19.336 19.3358 16.2696 19.3358 12.5003C19.3358 8.73092 16.2694 5.66451 12.5001 5.66451ZM12.5001 17.8704C9.53912 17.8704 7.12993 15.4614 7.12993 12.5003C7.12993 9.53932 9.53912 7.13013 12.5001 7.13013C15.4613 7.13013 17.8702 9.53932 17.8702 12.5003C17.8702 15.4614 15.4613 17.8704 12.5001 17.8704ZM19.4993 3.23682C18.3854 3.23682 17.4794 4.14302 17.4794 5.25669C17.4794 6.37061 18.3854 7.27677 19.4993 7.27677C20.6132 7.27677 21.5193 6.37061 21.5193 5.25674C21.5193 4.14287 20.6132 3.23682 19.4993 3.23682ZM19.4993 5.81099C19.1937 5.81099 18.945 5.56226 18.945 5.25669C18.945 4.95098 19.1937 4.70244 19.4993 4.70244C19.805 4.70244 20.0537 4.95098 20.0537 5.25669C20.0537 5.56226 19.805 5.81099 19.4993 5.81099Z" fill="white"/>
</svg>
