<svg width="64" height="64" viewBox="0 0 64 64" fill="none" xmlns="http://www.w3.org/2000/svg">
<rect width="64" height="64" rx="5" fill="white" fill-opacity="0.12"/>
<path d="M31.7245 45.7959L30.9112 45.0988C29.79 44.1599 20 35.705 20 29.5204C20 23.0451 25.2492 17.7959 31.7245 17.7959C38.1997 17.7959 43.4489 23.0451 43.4489 29.5204C43.4489 35.705 33.659 44.16 32.5424 45.1034L31.7245 45.7959ZM31.7245 20.3311C26.6518 20.3368 22.541 24.4476 22.5352 29.5203C22.5352 33.4056 28.5584 39.6123 31.7245 42.4531C34.8906 39.6112 40.9137 33.4009 40.9137 29.5203C40.908 24.4476 36.7972 20.3369 31.7245 20.3311Z" fill="white"/>
<path d="M31.7244 34.1678C29.1577 34.1678 27.0769 32.087 27.0769 29.5203C27.0769 26.9536 29.1577 24.8728 31.7244 24.8728C34.2911 24.8728 36.3719 26.9536 36.3719 29.5203C36.3719 32.087 34.2912 34.1678 31.7244 34.1678ZM31.7244 27.1965C30.441 27.1965 29.4006 28.2369 29.4006 29.5202C29.4006 30.8036 30.441 31.844 31.7244 31.844C33.0077 31.844 34.0481 30.8036 34.0481 29.5202C34.0481 28.2369 33.0078 27.1965 31.7244 27.1965Z" fill="white"/>
</svg>
