<svg width="254" height="63" viewBox="0 0 254 63" fill="none" xmlns="http://www.w3.org/2000/svg">
<path d="M59.8347 52.9652C59.1445 53.6572 58.1092 54.6953 56.7288 56.0795C55.3484 57.1176 53.6229 58.1557 51.5523 59.1938C49.4817 60.2319 47.066 60.9239 43.9601 61.616C41.1993 62.3081 37.7483 62.6541 34.2973 62.6541C28.4306 62.6541 23.5993 61.616 19.4581 59.8858C15.3169 58.1557 11.8659 55.7334 9.10508 52.6191C6.34428 49.5048 4.27369 46.3906 3.23839 42.5842C1.51289 38.7778 0.822693 34.9715 0.822693 30.8191C0.822693 26.3206 1.51289 22.1682 3.23839 18.3619C4.96389 14.5555 7.03448 11.4412 10.1404 8.67296C12.9012 5.90469 16.6973 3.82849 20.4934 2.44436C24.6346 1.06023 29.1208 0.368164 33.9522 0.368164C37.4032 0.368164 40.5091 0.714197 43.2699 1.40626C46.0307 2.09833 48.4464 3.13643 50.1719 4.17453C52.2425 5.21263 53.968 6.94279 55.0033 8.32692C56.3837 10.0571 57.419 11.7873 58.4543 13.8635H52.2425C51.8974 12.8254 51.2072 11.4412 50.1719 10.4031C49.1366 9.36502 47.7562 8.32692 46.3758 7.28882C44.6503 6.25072 42.9248 5.55866 40.8542 5.21263C38.7836 4.52056 36.3679 4.17453 33.9522 4.17453C30.5012 4.17453 27.0502 4.86659 23.9444 6.25072C21.1836 7.63486 18.4228 9.36502 16.3522 11.7873C13.9365 14.2095 12.211 16.9777 11.1757 20.092C9.79528 23.2063 9.45018 27.0127 9.45018 30.8191C9.45018 34.6254 10.1404 38.0858 11.1757 41.2001C12.211 44.6604 13.9365 47.4286 16.3522 50.1969C18.7679 52.6191 21.5287 54.6953 24.9797 56.4255C28.4306 57.8096 32.2267 58.8477 36.713 58.8477C44.6503 58.8477 51.5523 56.0795 57.419 50.5429L59.8347 52.9652Z" fill="white"/>
<path d="M78.8152 1.40576V24.2439H79.1603L80.1956 23.2058C82.2662 21.1296 84.3368 19.3995 86.4074 18.7074C88.478 18.0153 90.5486 17.6693 92.6192 17.6693C93.9996 17.6693 95.7251 18.0153 97.1055 18.3614C98.831 18.7074 100.211 19.3995 101.592 20.7836C102.972 21.8217 104.007 23.5519 105.043 25.6281C106.078 27.7043 106.423 30.1265 106.423 33.5868V61.9615H99.1761V35.663C99.1761 33.9329 99.1761 32.2027 98.831 30.8186C98.4859 29.0884 98.1408 27.7043 97.4506 26.6662C96.7604 25.6281 96.0702 24.59 94.6898 23.8979C93.9996 22.5138 92.2741 22.1677 90.5486 22.1677C87.7878 22.1677 85.7172 22.8598 83.9917 23.8979C82.6113 24.936 81.2309 26.3201 80.5407 28.0503C79.8505 29.4344 79.1603 31.1646 79.1603 32.8948C79.1603 34.6249 78.8152 36.0091 78.8152 37.0472V61.9615H71.5681V1.40576H78.8152Z" fill="white"/>
<path d="M129.2 41.8914C129.2 45.3517 129.545 48.12 130.58 50.5422C131.615 52.6184 132.996 54.3486 134.376 55.7327C135.757 57.1169 137.482 57.8089 139.208 58.501C140.933 58.847 142.659 59.1931 144.384 59.1931C145.764 59.1931 147.145 59.1931 148.18 58.847C149.215 58.501 150.596 58.155 151.631 57.4629C152.666 56.7708 153.702 56.0788 154.737 55.3867C155.772 54.6946 156.808 53.6565 158.188 52.6184L160.949 55.3867C158.533 57.8089 156.117 59.5391 153.012 60.9232C149.906 62.3074 146.455 62.9994 143.004 62.9994C139.208 62.9994 136.102 62.3074 133.341 60.9232C130.58 59.5391 128.164 57.8089 126.439 55.7327C124.713 53.6565 123.333 51.2343 122.298 48.466C121.262 45.6978 120.917 42.9295 120.917 40.1612C120.917 36.7009 121.262 33.5866 122.298 30.8184C123.333 28.0501 124.713 25.6279 126.439 23.8977C128.164 21.8215 130.235 20.4374 132.996 19.3993C135.411 18.3612 138.172 18.0151 140.933 18.0151C143.694 18.0151 146.11 18.3612 148.87 19.3993C151.286 20.4374 153.357 21.8215 155.427 23.5517C157.153 25.2818 158.878 27.7041 159.914 30.4723C160.949 33.2406 161.639 36.7009 161.639 40.5073V42.2374H129.2V41.8914ZM154.047 38.4311C154.047 32.8946 153.012 28.3961 150.596 25.2818C148.525 22.5136 145.419 20.7834 141.278 20.7834C139.208 20.7834 137.482 21.1294 135.757 22.1675C134.376 23.2056 132.996 24.5898 131.96 26.3199C130.925 28.0501 130.235 29.7803 129.89 31.8565C129.545 33.9327 129.2 36.3549 129.2 38.4311H154.047Z" fill="white"/>
<path d="M185.106 61.6155H177.859V1.40576H185.106V61.6155Z" fill="white"/>
<path d="M204.086 22.1681H200.98V0.0219727H209.263L204.086 22.1681Z" fill="white" fill-opacity="0.38"/>
<path d="M246.188 28.3965C246.188 27.7044 245.843 27.0123 245.498 25.9742C245.153 25.2822 244.463 24.2441 243.773 23.552C243.082 22.8599 241.702 22.1679 240.667 21.8218C239.286 21.4758 237.906 21.1298 236.18 21.1298C234.455 21.1298 233.075 21.4758 232.039 21.8218C231.004 22.1679 229.969 22.8599 229.278 23.552C228.588 24.2441 228.243 24.9361 227.898 25.9742C227.553 26.6663 227.553 27.7044 227.553 28.3965C227.553 30.1266 228.243 31.5108 229.624 32.5489C231.004 33.5869 232.384 34.279 234.455 34.9711C236.526 35.6632 238.596 36.3552 240.667 37.0473C243.082 37.7393 245.153 38.4314 246.879 39.4695C248.949 40.5076 250.33 41.8917 251.71 43.6219C253.09 45.3521 253.781 47.4283 253.781 50.1965C253.781 54.0029 252.4 57.1172 249.639 59.1934C246.879 61.6156 243.082 62.6537 237.906 62.6537C235.145 62.6537 232.384 62.3077 230.314 61.6156C228.243 60.9236 226.173 59.8855 224.792 58.8474C223.412 57.8093 222.031 56.4251 221.341 54.695C220.651 53.3108 220.306 51.5807 220.306 49.8505H225.137C225.137 50.5426 225.482 51.2346 225.827 52.2727C226.173 53.3108 226.863 54.3489 227.898 55.387C228.933 56.4251 230.314 57.1172 231.694 57.8093C233.42 58.5013 235.145 58.8474 237.561 58.8474C239.286 58.8474 241.012 58.5013 242.047 58.1553C243.082 57.8093 244.118 57.1172 244.808 56.4251C245.498 55.7331 245.843 55.041 246.188 54.0029C246.533 53.3108 246.533 52.2727 246.533 51.5807C246.533 49.8505 245.843 48.1203 244.808 47.0822C243.428 46.0441 242.047 45.006 239.977 44.314C237.906 43.6219 236.18 42.9298 233.765 42.2378C231.694 41.5457 229.624 40.8536 227.553 39.8155C225.827 38.7774 224.102 37.3933 222.722 36.0092C221.341 34.625 221.686 32.5489 221.686 29.7806C221.686 27.7044 222.031 25.9742 222.722 24.5901C223.412 23.206 224.447 21.8218 225.827 20.7837C227.208 19.7456 228.588 19.0536 230.314 18.3615C232.039 18.0155 233.765 17.6694 235.835 17.6694C237.906 17.6694 239.977 18.0155 241.702 18.3615C243.428 19.0536 245.153 19.7456 246.533 20.4377C247.914 21.4758 248.949 22.5139 249.984 23.898C250.675 25.2822 251.02 26.6663 251.02 28.0504H246.188V28.3965Z" fill="white"/>
</svg>
