<svg width="64" height="64" viewBox="0 0 64 64" fill="none" xmlns="http://www.w3.org/2000/svg">
<rect width="64" height="64" rx="5" fill="white" fill-opacity="0.12"/>
<path d="M40.75 18.7959H23.25C21.593 18.7978 20.0044 19.4241 18.8328 20.5376C17.6611 21.651 17.002 23.1606 17 24.7353V38.9898C17.002 40.5645 17.6611 42.0741 18.8328 43.1875C20.0044 44.301 21.593 44.9273 23.25 44.9292H40.75C42.407 44.9273 43.9956 44.301 45.1672 43.1875C46.3389 42.0741 46.998 40.5645 47 38.9898V24.7353C46.998 23.1606 46.3389 21.651 45.1672 20.5376C43.9956 19.4241 42.407 18.7978 40.75 18.7959V18.7959ZM23.25 21.1717H40.75C41.4985 21.1731 42.2294 21.3873 42.8487 21.7867C43.468 22.1862 43.9473 22.7527 44.225 23.4132L34.6525 32.5111C33.948 33.1779 32.9943 33.5523 32 33.5523C31.0057 33.5523 30.052 33.1779 29.3475 32.5111L19.775 23.4132C20.0527 22.7527 20.532 22.1862 21.1513 21.7867C21.7706 21.3873 22.5015 21.1731 23.25 21.1717V21.1717ZM40.75 42.5535H23.25C22.2554 42.5535 21.3016 42.178 20.5983 41.5097C19.8951 40.8414 19.5 39.935 19.5 38.9898V26.5171L27.58 34.1908C28.7533 35.303 30.3428 35.9275 32 35.9275C33.6572 35.9275 35.2467 35.303 36.42 34.1908L44.5 26.5171V38.9898C44.5 39.935 44.1049 40.8414 43.4017 41.5097C42.6984 42.178 41.7446 42.5535 40.75 42.5535Z" fill="white"/>
</svg>
