<svg width="64" height="64" viewBox="0 0 64 64" fill="none" xmlns="http://www.w3.org/2000/svg">
<rect width="64" height="64" rx="5" fill="white" fill-opacity="0.12"/>
<path d="M45.9478 38.818C45.8658 38.5085 45.7199 38.2196 45.5194 37.9701C45.3189 37.7205 45.0683 37.5157 44.7838 37.369L38.8092 34.2731C38.3271 34.0175 37.7692 33.9437 37.2372 34.0651C36.7053 34.1866 36.2347 34.4953 35.9113 34.9348L34.9453 36.2582C34.8957 36.3269 34.8226 36.3752 34.7399 36.3939C34.6572 36.4125 34.5705 36.4004 34.4961 36.3596C33.0756 35.5512 31.775 34.5481 30.6322 33.3795C29.4637 32.2367 28.4606 30.9362 27.6522 29.5157C27.6114 29.4413 27.5992 29.3546 27.6179 29.2719C27.6366 29.1891 27.6849 29.1161 27.7536 29.0665L29.0722 28.1005C29.5117 27.7771 29.8203 27.3065 29.9418 26.7746C30.0633 26.2426 29.9895 25.6847 29.7339 25.2026L26.6573 19.2329C26.5095 18.9479 26.3034 18.6973 26.0523 18.4974C25.8012 18.2975 25.5108 18.1527 25.2 18.0725C24.8893 17.9923 24.5651 17.9785 24.2486 18.0319C23.9321 18.0854 23.6305 18.205 23.3633 18.3828L19.6105 20.8943C19.0835 21.2452 18.658 21.7284 18.3766 22.2955C18.0952 22.8626 17.9677 23.4937 18.007 24.1255C18.0566 25.1938 18.2005 26.2557 18.4368 27.2987C19.4559 31.2303 21.9143 35.2729 25.329 38.6924C28.7438 42.112 32.7912 44.5607 36.7227 45.5701C37.7658 45.8064 38.8276 45.9503 39.8959 46H40.1374C40.7268 45.9987 41.307 45.8532 41.8272 45.5763C42.3475 45.2993 42.7921 44.8992 43.1223 44.411L45.6242 40.6582C45.8047 40.3916 45.9269 40.0898 45.9827 39.7727C46.0384 39.4555 46.0265 39.1302 45.9478 38.818ZM44.0158 39.5811L41.5284 43.3387C41.3633 43.5825 41.1375 43.7788 40.8731 43.9084C40.6088 44.0381 40.3153 44.0964 40.0215 44.0777C39.074 44.0339 38.132 43.9095 37.2057 43.7058C33.6026 42.7688 29.8739 40.5036 26.7007 37.3159C23.5275 34.1282 21.2526 30.414 20.3156 26.8109C20.1102 25.8847 19.9842 24.9427 19.9389 23.9951C19.9196 23.7019 19.9777 23.4088 20.1074 23.1452C20.2371 22.8816 20.4338 22.6567 20.6779 22.493L24.4307 19.9911C24.4878 19.9529 24.5551 19.9327 24.6239 19.9332H24.7156C24.7632 19.9456 24.8076 19.9679 24.8459 19.9987C24.8842 20.0295 24.9155 20.0681 24.9378 20.1119L28.0289 26.0864C28.0674 26.1605 28.0782 26.2458 28.0597 26.3272C28.0411 26.4086 27.9943 26.4807 27.9275 26.5308L26.609 27.4968C26.1618 27.8294 25.852 28.3143 25.7381 28.8598C25.6242 29.4054 25.7141 29.9737 25.9907 30.4575C26.8847 32.0201 27.9899 33.4519 29.275 34.7126C30.5356 35.9979 31.9675 37.1031 33.5302 37.9969C34.0139 38.2735 34.5823 38.3634 35.1278 38.2495C35.6733 38.1356 36.1582 37.8258 36.4909 37.3787L37.4568 36.0553C37.5069 35.9885 37.5791 35.9417 37.6604 35.9231C37.7418 35.9046 37.8271 35.9155 37.9012 35.9539L43.8757 39.045C43.9195 39.0679 43.9579 39.0997 43.9886 39.1384C44.0192 39.1771 44.0414 39.2218 44.0537 39.2696C44.066 39.3174 44.0681 39.3672 44.0599 39.4159C44.0517 39.4646 44.0334 39.511 44.0061 39.5521L44.0158 39.5811Z" fill="white"/>
</svg>
