<svg width="786" height="207" viewBox="0 0 786 207" fill="none" xmlns="http://www.w3.org/2000/svg">
<g opacity="0.05">
<path d="M151.162 173.297C148.903 175.562 145.514 178.96 140.996 183.491C136.477 186.889 130.829 190.287 124.052 193.685C117.274 197.083 109.367 199.348 99.2005 201.613C90.1637 203.879 78.8677 205.011 67.5716 205.011C48.3683 205.011 32.5539 201.613 18.9986 195.95C5.44338 190.287 -5.85266 182.358 -14.8895 172.164C-23.9263 161.97 -30.704 151.776 -34.0928 139.317C-39.7408 126.858 -42 114.399 -42 100.807C-42 86.0821 -39.7408 72.4902 -34.0928 60.0309C-28.4447 47.5717 -21.6671 37.3777 -11.5007 28.3164C-2.46385 19.2551 9.9618 12.4592 22.3874 7.92854C35.9427 3.3979 50.6276 1.13258 66.442 1.13258C77.7381 1.13258 87.9045 2.26524 96.9413 4.53056C105.978 6.79588 113.885 10.1939 119.533 13.5918C126.311 16.9898 131.959 22.6531 135.348 27.1838C139.866 32.8471 143.255 38.5104 146.644 45.3063H126.311C125.181 41.9084 122.922 37.3777 119.533 33.9797C116.145 30.5817 111.626 27.1838 107.108 23.7858C101.46 20.3878 95.8117 18.1225 89.0341 16.9898C82.2565 14.7245 74.3493 13.5918 66.442 13.5918C55.146 13.5918 43.8499 15.8572 33.6835 20.3878C24.6467 24.9184 15.6098 30.5818 8.8322 38.5104C0.924965 46.439 -4.72306 55.5003 -8.11187 65.6942C-12.6303 75.8882 -13.7599 88.3474 -13.7599 100.807C-13.7599 113.266 -11.5007 124.593 -8.11187 134.786C-4.72306 146.113 0.924965 155.174 8.8322 164.236C16.7394 172.164 25.7763 178.96 37.0723 184.624C48.3683 189.154 60.794 192.552 75.4788 192.552C101.46 192.552 124.052 183.491 143.255 165.368L151.162 173.297Z" fill="#212121"/>
<path d="M213.291 4.53073V79.2863H214.42L217.809 75.8883C224.587 69.0924 231.364 63.4291 238.142 61.1637C244.92 58.8984 251.697 57.7658 258.475 57.7658C262.993 57.7658 268.641 58.8984 273.16 60.0311C278.808 61.1637 283.326 63.4291 287.844 67.9597C292.363 71.3577 295.752 77.021 299.141 83.8169C302.529 90.6129 303.659 98.5415 303.659 109.868V202.746H279.937V116.664C279.937 111.001 279.937 105.337 278.808 100.807C277.678 95.1435 276.548 90.6129 274.289 87.2149C272.03 83.8169 269.771 80.419 265.252 78.1536C262.993 73.623 257.345 72.4903 251.697 72.4903C242.66 72.4903 235.883 74.7557 230.235 78.1536C225.716 81.5516 221.198 86.0823 218.939 91.7456C216.679 96.2762 214.42 101.94 214.42 107.603C214.42 113.266 213.291 117.797 213.291 121.195V202.746H189.569V4.53073H213.291Z" fill="#212121"/>
<path d="M378.213 137.052C378.213 148.378 379.342 157.44 382.731 165.368C386.12 172.164 390.638 177.828 395.157 182.358C399.675 186.889 405.323 189.154 410.971 191.42C416.619 192.552 422.267 193.685 427.915 193.685C432.434 193.685 436.952 193.685 440.341 192.552C443.73 191.42 448.248 190.287 451.637 188.022C455.026 185.756 458.415 183.491 461.803 181.226C465.192 178.96 468.581 175.562 473.099 172.164L482.136 181.226C474.229 189.154 466.322 194.817 456.155 199.348C445.989 203.879 434.693 206.144 423.397 206.144C410.971 206.144 400.805 203.879 391.768 199.348C382.731 194.817 374.824 189.154 369.176 182.358C363.528 175.562 359.009 167.634 355.621 158.572C352.232 149.511 351.102 140.45 351.102 131.389C351.102 120.062 352.232 109.868 355.621 100.807C359.009 91.7454 363.528 83.8168 369.176 78.1535C374.824 71.3575 381.602 66.8269 390.638 63.4289C398.546 60.0309 407.582 58.8983 416.619 58.8983C425.656 58.8983 433.563 60.0309 442.6 63.4289C450.507 66.8269 457.285 71.3575 464.063 77.0208C469.711 82.6841 475.359 90.6127 478.748 99.674C482.136 108.735 484.396 120.062 484.396 132.521V138.184H378.213V137.052ZM459.544 125.725C459.544 107.603 456.155 92.8781 448.248 82.6841C441.471 73.6228 431.304 67.9595 417.749 67.9595C410.971 67.9595 405.323 69.0922 399.675 72.4902C395.157 75.8882 390.638 80.4188 387.25 86.0821C383.861 91.7454 381.602 97.4087 380.472 104.205C379.342 111.001 378.213 118.929 378.213 125.725H459.544Z" fill="#212121"/>
<path d="M561.209 201.614H537.487V4.53073H561.209V201.614Z" fill="#212121"/>
<path d="M623.337 72.4903H613.17V0H640.281L623.337 72.4903Z" fill="#174897"/>
<path d="M761.149 92.8781C761.149 90.6128 760.019 88.3475 758.89 84.9495C757.76 82.6842 755.501 79.2862 753.241 77.0209C750.982 74.7556 746.464 72.4903 743.075 71.3576C738.557 70.2249 734.038 69.0923 728.39 69.0923C722.742 69.0923 718.224 70.2249 714.835 71.3576C711.446 72.4903 708.057 74.7556 705.798 77.0209C703.539 79.2862 702.409 81.5515 701.28 84.9495C700.15 87.2148 700.15 90.6128 700.15 92.8781C700.15 98.5414 702.409 103.072 706.928 106.47C711.446 109.868 715.964 112.133 722.742 114.399C729.52 116.664 736.297 118.929 743.075 121.195C750.982 123.46 757.76 125.725 763.408 129.123C770.186 132.521 774.704 137.052 779.222 142.715C783.741 148.379 786 155.174 786 164.236C786 176.695 781.482 186.889 772.445 193.685C763.408 201.614 750.982 205.012 734.038 205.012C725.001 205.012 715.965 203.879 709.187 201.614C702.409 199.348 695.632 195.95 691.113 192.552C686.595 189.154 682.076 184.624 679.817 178.96C677.558 174.43 676.428 168.766 676.428 163.103H692.243C692.243 165.368 693.372 167.634 694.502 171.032C695.632 174.43 697.891 177.828 701.28 181.226C704.669 184.624 709.187 186.889 713.705 189.154C719.353 191.42 725.001 192.552 732.909 192.552C738.557 192.552 744.205 191.42 747.593 190.287C750.982 189.154 754.371 186.889 756.63 184.624C758.889 182.358 760.019 180.093 761.149 176.695C762.278 174.43 762.278 171.032 762.278 168.766C762.278 163.103 760.019 157.44 756.63 154.042C752.112 150.644 747.593 147.246 740.816 144.981C734.038 142.715 728.39 140.45 720.483 138.185C713.705 135.919 706.928 133.654 700.15 130.256C694.502 126.858 688.854 122.327 684.336 117.797C679.817 113.266 680.947 106.47 680.947 97.4088C680.947 90.6128 682.076 84.9495 684.336 80.4189C686.595 75.8882 689.984 71.3576 694.502 67.9596C699.02 64.5616 703.539 62.2963 709.187 60.031C714.835 58.8983 720.483 57.7657 727.261 57.7657C734.038 57.7657 740.816 58.8983 746.464 60.031C752.112 62.2963 757.76 64.5616 762.278 66.827C766.797 70.2249 770.185 73.6229 773.574 78.1536C775.834 82.6842 776.963 87.2148 776.963 91.7455H761.149V92.8781Z" fill="#212121"/>
</g>
</svg>
