<svg width="26" height="25" viewBox="0 0 26 25" fill="none" xmlns="http://www.w3.org/2000/svg">
<path d="M22.0708 25H15.821V15.625H18.852L19.649 12.4999H15.821V8.7499C15.821 7.71444 16.6603 6.8749 17.6959 6.8749H19.5709V3.74999H17.6959C14.9363 3.75434 12.7002 5.99028 12.6958 8.7499V12.4999H9.57089V15.625H12.6958V25H3.32084C1.59507 25 0.195923 23.6008 0.195923 21.8749V3.12491C0.195923 1.39915 1.59507 0 3.32084 0H22.0708C23.7968 0 25.1959 1.39915 25.1959 3.12491V21.8749C25.1959 23.6008 23.7968 25 22.0708 25ZM17.0709 23.7499H22.0708C23.1065 23.7499 23.9458 22.9105 23.9458 21.8749V3.12491C23.9458 2.08946 23.1065 1.24992 22.0708 1.24992H3.32084C2.28538 1.24992 1.44584 2.08946 1.44584 3.12491V21.8749C1.44584 22.9105 2.28538 23.7499 3.32084 23.7499H11.4459V16.8749H8.32097V11.25H11.4459V8.7499C11.4502 5.29997 14.2458 2.50419 17.6959 2.50007H20.8209V8.12505H17.6959C17.3508 8.12505 17.0709 8.40474 17.0709 8.7499V11.25H21.2583L19.8209 16.8749H17.0709V23.7499Z" fill="white"/>
</svg>
