<svg width="26" height="25" viewBox="0 0 26 25" fill="none" xmlns="http://www.w3.org/2000/svg">
<path d="M6.57316 24.6485H0V7.66797H6.57316V24.6485ZM1.09546 23.553H5.4777V8.76343H1.09546V23.553Z" fill="white"/>
<path d="M25.1966 24.6485H18.6234V15.3366C18.6234 14.4291 17.8876 13.6933 16.9801 13.6933C16.0724 13.6933 15.3368 14.4291 15.3368 15.3366V24.6485H8.76367V7.66797H15.3368V8.77025C16.329 8.05292 17.5223 7.66717 18.7466 7.66797C22.3001 7.66797 25.1966 10.5505 25.1966 14.0973V24.6485ZM19.7189 23.553H24.1009V14.0973C24.0935 11.1465 21.6974 8.75962 18.7466 8.76343C17.3978 8.76343 16.131 9.33172 15.1862 10.3588L14.2412 11.3927V8.76343H9.85913V23.553H14.2412V15.3366C14.2412 13.8239 15.4674 12.5978 16.9801 12.5978C18.4926 12.5978 19.7189 13.8239 19.7189 15.3366V23.553Z" fill="white"/>
<path d="M3.28658 6.57316C1.47138 6.57316 0 5.10178 0 3.28658C0 1.47158 1.47138 0 3.28658 0C5.10178 0 6.57316 1.47158 6.57316 3.28658C6.56935 5.10018 5.10018 6.56955 3.28658 6.57316ZM3.28658 1.09566C2.07658 1.09566 1.09546 2.07658 1.09546 3.28658C1.09546 4.49678 2.07658 5.4777 3.28658 5.4777C4.49658 5.4777 5.4777 4.49678 5.4777 3.28658C5.4777 2.07658 4.49658 1.09566 3.28658 1.09566Z" fill="white"/>
</svg>
