<svg width="125" height="32" viewBox="0 0 125 32" fill="none" xmlns="http://www.w3.org/2000/svg">
<path d="M29.4652 26.6674C29.1252 27.0083 28.6152 27.5196 27.9352 28.2014C27.2553 28.7128 26.4053 29.2241 25.3854 29.7355C24.3654 30.2468 23.1755 30.5877 21.6456 30.9286C20.2857 31.2696 18.5857 31.44 16.8858 31.44C13.996 31.44 11.6161 30.9286 9.57623 30.0764C7.53634 29.2241 5.83643 28.031 4.47651 26.4969C3.11658 24.9629 2.09664 23.4288 1.58666 21.5539C0.73671 19.6789 0.396729 17.8039 0.396729 15.7585C0.396729 13.5427 0.73671 11.4973 1.58666 9.62232C2.43662 7.74736 3.45656 6.2133 4.98648 4.8497C6.34641 3.48609 8.21631 2.46339 10.0862 1.78158C12.1261 1.09978 14.336 0.758881 16.7158 0.758881C18.4158 0.758881 19.9457 0.929331 21.3056 1.27023C22.6655 1.61113 23.8555 2.12249 24.7054 2.63384C25.7254 3.14519 26.5753 3.99744 27.0853 4.67925C27.7652 5.5315 28.2752 6.38375 28.7852 7.40646H25.7254C25.5554 6.8951 25.2154 6.2133 24.7054 5.70195C24.1954 5.1906 23.5155 4.67925 22.8355 4.16789C21.9856 3.65654 21.1356 3.31564 20.1157 3.14519C19.0957 2.80429 17.9058 2.63384 16.7158 2.63384C15.0159 2.63384 13.316 2.97474 11.7861 3.65654C10.4262 4.33834 9.06626 5.1906 8.04631 6.38375C6.85638 7.57691 6.00642 8.94051 5.49645 10.4746C4.81649 12.0086 4.6465 13.8836 4.6465 15.7585C4.6465 17.6335 4.98648 19.338 5.49645 20.8721C6.00642 22.5766 6.85638 23.9402 8.04631 25.3038C9.23625 26.4969 10.5962 27.5196 12.2961 28.3719C13.996 29.0537 15.8659 29.565 18.0758 29.565C21.9856 29.565 25.3854 28.2014 28.2752 25.4742L29.4652 26.6674Z" fill="#212121"/>
<path d="M38.8147 1.27026V12.52H38.9846L39.4946 12.0087C40.5146 10.986 41.5345 10.1337 42.5545 9.7928C43.5744 9.4519 44.5943 9.28145 45.6143 9.28145C46.2943 9.28145 47.1442 9.4519 47.8242 9.62235C48.6741 9.7928 49.3541 10.1337 50.0341 10.8155C50.714 11.3269 51.224 12.1791 51.734 13.2018C52.2439 14.2245 52.4139 15.4177 52.4139 17.1222V31.0991H48.8441V18.1449C48.8441 17.2926 48.8441 16.4404 48.6741 15.7586C48.5041 14.9063 48.3341 14.2245 47.9942 13.7132C47.6542 13.2018 47.3142 12.6905 46.6342 12.3496C46.2943 11.6678 45.4443 11.4973 44.5943 11.4973C43.2344 11.4973 42.2145 11.8382 41.3645 12.3496C40.6846 12.8609 40.0046 13.5427 39.6646 14.395C39.3246 15.0768 38.9846 15.929 38.9846 16.7813C38.9846 17.6335 38.8147 18.3153 38.8147 18.8267V31.0991H35.2449V1.27026H38.8147Z" fill="#212121"/>
<path d="M63.6333 21.213C63.6333 22.9175 63.8033 24.2811 64.3133 25.4742C64.8232 26.4969 65.5032 27.3492 66.1832 28.031C66.8631 28.7128 67.7131 29.0537 68.563 29.3946C69.413 29.5651 70.2629 29.7355 71.1129 29.7355C71.7929 29.7355 72.4728 29.7355 72.9828 29.5651C73.4928 29.3946 74.1727 29.2242 74.6827 28.8833C75.1927 28.5424 75.7026 28.2015 76.2126 27.8605C76.7226 27.5196 77.2326 27.0083 77.9125 26.4969L79.2725 27.8605C78.0825 29.0537 76.8926 29.906 75.3627 30.5878C73.8327 31.2696 72.1328 31.6105 70.4329 31.6105C68.563 31.6105 67.0331 31.2696 65.6732 30.5878C64.3133 29.906 63.1233 29.0537 62.2734 28.031C61.4234 27.0083 60.7435 25.8151 60.2335 24.4515C59.7235 23.0879 59.5535 21.7243 59.5535 20.3607C59.5535 18.6562 59.7235 17.1222 60.2335 15.7585C60.7435 14.3949 61.4234 13.2018 62.2734 12.3495C63.1233 11.3268 64.1433 10.645 65.5032 10.1337C66.6931 9.62232 68.0531 9.45187 69.413 9.45187C70.7729 9.45187 71.9629 9.62232 73.3228 10.1337C74.5127 10.645 75.5327 11.3268 76.5526 12.1791C77.4026 13.0313 78.2525 14.2245 78.7625 15.5881C79.2725 16.9517 79.6124 18.6562 79.6124 20.5312V21.3834H63.6333V21.213ZM75.8726 19.5085C75.8726 16.7813 75.3627 14.5654 74.1727 13.0313C73.1528 11.6677 71.6229 10.8155 69.583 10.8155C68.563 10.8155 67.7131 10.9859 66.8631 11.4973C66.1832 12.0086 65.5032 12.6904 64.9932 13.5427C64.4833 14.3949 64.1433 15.2472 63.9733 16.2699C63.8033 17.2926 63.6333 18.4858 63.6333 19.5085H75.8726Z" fill="#212121"/>
<path d="M91.1718 30.9287H87.602V1.27026H91.1718V30.9287Z" fill="#212121"/>
<path d="M100.521 11.4973H98.9914V0.58844H103.071L100.521 11.4973Z" fill="#174897"/>
<path d="M121.26 14.5654C121.26 14.2245 121.09 13.8836 120.92 13.3722C120.75 13.0313 120.41 12.52 120.07 12.1791C119.73 11.8382 119.05 11.4973 118.54 11.3268C117.86 11.1564 117.18 10.9859 116.33 10.9859C115.481 10.9859 114.801 11.1564 114.291 11.3268C113.781 11.4973 113.271 11.8382 112.931 12.1791C112.591 12.52 112.421 12.8609 112.251 13.3722C112.081 13.7132 112.081 14.2245 112.081 14.5654C112.081 15.4177 112.421 16.0995 113.101 16.6108C113.781 17.1222 114.461 17.4631 115.481 17.804C116.5 18.1449 117.52 18.4858 118.54 18.8267C119.73 19.1676 120.75 19.5085 121.6 20.0198C122.62 20.5312 123.3 21.213 123.98 22.0652C124.66 22.9175 125 23.9402 125 25.3038C125 27.1788 124.32 28.7128 122.96 29.7355C121.6 30.9287 119.73 31.44 117.18 31.44C115.82 31.44 114.461 31.2696 113.441 30.9287C112.421 30.5878 111.401 30.0764 110.721 29.5651C110.041 29.0537 109.361 28.3719 109.021 27.5197C108.681 26.8379 108.511 25.9856 108.511 25.1333H110.891C110.891 25.4742 111.061 25.8151 111.231 26.3265C111.401 26.8379 111.741 27.3492 112.251 27.8606C112.761 28.3719 113.441 28.7128 114.121 29.0537C114.971 29.3946 115.82 29.5651 117.01 29.5651C117.86 29.5651 118.71 29.3946 119.22 29.2242C119.73 29.0537 120.24 28.7128 120.58 28.3719C120.92 28.031 121.09 27.6901 121.26 27.1788C121.43 26.8379 121.43 26.3265 121.43 25.9856C121.43 25.1333 121.09 24.2811 120.58 23.7697C119.9 23.2584 119.22 22.747 118.2 22.4061C117.18 22.0652 116.33 21.7243 115.141 21.3834C114.121 21.0425 113.101 20.7016 112.081 20.1903C111.231 19.6789 110.381 18.9971 109.701 18.3153C109.021 17.6335 109.191 16.6108 109.191 15.2472C109.191 14.2245 109.361 13.3722 109.701 12.6904C110.041 12.0086 110.551 11.3268 111.231 10.8155C111.911 10.3041 112.591 9.96324 113.441 9.62233C114.291 9.45188 115.141 9.28143 116.16 9.28143C117.18 9.28143 118.2 9.45188 119.05 9.62233C119.9 9.96324 120.75 10.3041 121.43 10.645C122.11 11.1564 122.62 11.6677 123.13 12.3495C123.47 13.0313 123.64 13.7132 123.64 14.395H121.26V14.5654Z" fill="#212121"/>
</svg>
