<svg width="1698" height="237" viewBox="0 0 1698 237" fill="none" xmlns="http://www.w3.org/2000/svg">
<g opacity="0.1">
<path d="M1589.44 232.717H1551.27V78.1977H1586.62L1589.75 98.2165C1599.44 82.5768 1618.21 73.5059 1639.17 73.5059C1677.96 73.5059 1697.97 97.5909 1697.97 137.628V232.717H1659.81V146.699C1659.81 120.738 1646.99 108.226 1627.28 108.226C1603.82 108.226 1589.44 124.491 1589.44 149.514V232.717Z" fill="white"/>
<path d="M1355.87 155.145C1355.87 106.975 1390.59 73.819 1438.45 73.819C1486.31 73.819 1521.03 106.975 1521.03 155.145C1521.03 203.315 1486.31 236.471 1438.45 236.471C1390.59 236.471 1355.87 203.315 1355.87 155.145ZM1394.03 155.145C1394.03 183.296 1412.18 202.377 1438.45 202.377C1464.72 202.377 1482.87 183.296 1482.87 155.145C1482.87 126.994 1464.72 107.913 1438.45 107.913C1412.18 107.913 1394.03 126.994 1394.03 155.145Z" fill="white"/>
<path d="M1306.44 47.2316C1293.3 47.2316 1282.98 36.9094 1282.98 24.0849C1282.98 11.2605 1293.3 1.2511 1306.44 1.2511C1318.95 1.2511 1329.27 11.2605 1329.27 24.0849C1329.27 36.9094 1318.95 47.2316 1306.44 47.2316ZM1287.36 232.718V78.198H1325.52V232.718H1287.36Z" fill="white"/>
<path d="M1130.68 185.798H1166.97C1167.28 199.248 1177.29 207.694 1194.8 207.694C1212.63 207.694 1222.33 200.5 1222.33 189.239C1222.33 181.419 1218.26 175.789 1204.5 172.661L1176.66 166.092C1148.82 159.837 1135.37 146.699 1135.37 121.989C1135.37 91.6478 1161.02 73.5059 1196.68 73.5059C1231.4 73.5059 1254.86 93.5246 1255.17 123.553H1218.89C1218.58 110.415 1209.82 101.97 1195.12 101.97C1180.1 101.97 1171.34 108.851 1171.34 120.425C1171.34 129.183 1178.23 134.813 1191.36 137.941L1219.2 144.51C1245.16 150.453 1258.3 162.339 1258.3 186.111C1258.3 217.39 1231.71 236.784 1193.55 236.784C1155.08 236.784 1130.68 216.139 1130.68 185.798Z" fill="white"/>
<path d="M985.893 185.798H1022.18C1022.49 199.248 1032.5 207.694 1050.01 207.694C1067.84 207.694 1077.54 200.5 1077.54 189.239C1077.54 181.419 1073.47 175.789 1059.71 172.661L1031.87 166.092C1004.03 159.837 990.584 146.699 990.584 121.989C990.584 91.6478 1016.23 73.5059 1051.89 73.5059C1086.61 73.5059 1110.07 93.5246 1110.38 123.553H1074.1C1073.79 110.415 1065.03 101.97 1050.33 101.97C1035.31 101.97 1026.56 108.851 1026.56 120.425C1026.56 129.183 1033.44 134.813 1046.57 137.941L1074.41 144.51C1100.37 150.453 1113.51 162.339 1113.51 186.111C1113.51 217.39 1086.92 236.784 1048.76 236.784C1010.29 236.784 985.893 216.139 985.893 185.798Z" fill="white"/>
<path d="M939.272 47.2316C926.135 47.2316 915.812 36.9094 915.812 24.0849C915.812 11.2605 926.135 1.2511 939.272 1.2511C951.784 1.2511 962.106 11.2605 962.106 24.0849C962.106 36.9094 951.784 47.2316 939.272 47.2316ZM920.191 232.718V78.198H958.352V232.718H920.191Z" fill="white"/>
<path d="M688.166 232.717H649.379V4.06586H688.166L761.985 186.111L835.804 4.06586H875.215V232.717H836.429V162.339C836.429 116.358 836.429 102.908 838.619 86.6431L780.439 232.717H743.53L685.663 86.9559C687.853 100.719 688.166 122.301 688.166 150.766V232.717Z" fill="white"/>
<path d="M533.612 77.5723V112.918H519.536C492.01 112.918 474.807 127.619 474.807 157.647V232.717H436.646V78.5107H472.617L474.807 101.032C481.375 85.7049 496.077 75.3828 516.721 75.3828C522.038 75.3828 527.356 76.0083 533.612 77.5723Z" fill="white"/>
<path d="M359.071 78.1981H397.232V232.718H361.886L359.071 212.073C349.687 226.775 329.669 236.784 309.024 236.784C273.366 236.784 252.409 212.699 252.409 174.851V78.1981H290.57V161.401C290.57 190.803 302.143 202.69 323.413 202.69C347.498 202.69 359.071 188.614 359.071 159.211V78.1981Z" fill="white"/>
<path d="M222.652 118.236C222.652 187.676 176.984 236.471 111.298 236.471C45.9241 236.471 0.882019 187.988 0.882019 118.236C0.882019 48.7956 46.2369 0 111.611 0C176.984 0 222.652 48.4828 222.652 118.236ZM180.425 118.236C180.425 69.4399 153.525 38.4735 111.611 38.4735C69.6964 38.4735 42.7962 69.4399 42.7962 118.236C42.7962 167.031 69.6964 197.998 111.611 197.998C153.525 197.998 180.425 166.406 180.425 118.236Z" fill="white"/>
</g>
</svg>
